<?xml version="1.0" encoding="UTF-8" standalone="no"?>
<svg
   xmlns:dc="http://purl.org/dc/elements/1.1/"
   xmlns:cc="http://creativecommons.org/ns#"
   xmlns:rdf="http://www.w3.org/1999/02/22-rdf-syntax-ns#"
   xmlns:svg="http://www.w3.org/2000/svg"
   xmlns="http://www.w3.org/2000/svg"
   viewBox="0 0 2240 1137.3333"
   height="1137.3333"
   width="2240"
   xml:space="preserve"
   id="svg2"
   version="1.1"><metadata
     id="metadata8"><rdf:RDF><cc:Work
         rdf:about=""><dc:format>image/svg+xml</dc:format><dc:type
           rdf:resource="http://purl.org/dc/dcmitype/StillImage" /></cc:Work></rdf:RDF></metadata><defs
     id="defs6" /><g
     transform="matrix(1.3333333,0,0,-1.3333333,0,1137.3333)"
     id="g10"><g
       transform="scale(0.1)"
       id="g12"><path
         id="path14"
         style="fill:#ed2555;fill-opacity:1;fill-rule:nonzero;stroke:none"
         d="m 10142.6,6254.14 -2096.88,-121.98 -858.79,208.82 2313.34,156.45 z" /><path
         id="path16"
         style="fill:#ff2a71;fill-opacity:1;fill-rule:nonzero;stroke:none"
         d="m 10281.9,7278.77 -139.3,-1024.63 -642.33,243.29 154.47,1168.4 z" /><path
         id="path18"
         style="fill:#ff2b74;fill-opacity:1;fill-rule:nonzero;stroke:none"
         d="m 10274.6,2302 -2.3,-1008.76 -623.39,-439.9 1.77,1147.16 z" /><path
         id="path20"
         style="fill:#ed2555;fill-opacity:1;fill-rule:nonzero;stroke:none"
         d="M 8047.31,2461.91 10274.6,2302 9650.68,2000.5 7193.07,2205.48 Z" /><path
         id="path22"
         style="fill:#ff2b74;fill-opacity:1;fill-rule:nonzero;stroke:none"
         d="m 8046.74,3775.34 0.57,-1313.43 -854.24,-256.43 -2.37,1591.5 z" /><path
         id="path24"
         style="fill:#ff2b74;fill-opacity:1;fill-rule:nonzero;stroke:none"
         d="m 9873.69,4815.33 -1.77,-980.19 -670.56,-89 1.09,1113.58 z" /><path
         id="path26"
         style="fill:#ff2b74;fill-opacity:1;fill-rule:nonzero;stroke:none"
         d="m 8045.72,6132.16 0.56,-1287.01 -857.12,-10.79 -2.23,1506.62 z" /><path
         id="path28"
         style="fill:#00fce1;fill-opacity:1;fill-rule:nonzero;stroke:none"
         d="m 9500.27,6497.43 -2313.34,-156.45 2.23,-1506.62 857.12,10.79 1156.17,14.57 -1.09,-1113.58 -1154.62,29.2 -856.04,21.64 2.37,-1591.5 2457.61,-204.98 -1.77,-1147.16 -3673.46,447.62 -17.82,5971.4 3697.11,393.47 z" /></g></g></svg>